<?xml version="1.0"?>
<svg xmlns="http://www.w3.org/2000/svg" id="Capa_1" enable-background="new 0 0 512 512" height="512px" viewBox="0 0 512 512" width="512px"><g><g><path d="m497 474.499c0 4.136-3.364 7.5-7.5 7.5h-354.502v15h354.502c12.406 0 22.5-10.093 22.5-22.5v-37.499h-15z" data-original="#000000" class="active-path" data-old_color="#000000" fill="#4949E7"/><path d="m0 142.5v37.5h15v-37.5c0-4.136 3.364-7.5 7.5-7.5h82.499v166h15v-181h-97.499c-12.406 0-22.5 10.094-22.5 22.5z" data-original="#000000" class="active-path" data-old_color="#000000" fill="#4949E7"/><path d="m489.5 120h-354.502v15h354.502c4.136 0 7.5 3.364 7.5 7.5v279.5h15v-279.5c0-12.406-10.094-22.5-22.5-22.5z" data-original="#000000" class="active-path" data-old_color="#000000" fill="#4949E7"/><path d="m104.999 481.999h-82.499c-4.136 0-7.5-3.364-7.5-7.5v-279.499h-15v279.499c0 12.407 10.094 22.5 22.5 22.5h97.499v-180.999h-15z" data-original="#000000" class="active-path" data-old_color="#000000" fill="#4949E7"/><path d="m60 338.5c16.542 0 30-13.458 30-30s-13.458-30-30-30-30 13.458-30 30 13.458 30 30 30zm0-45c8.271 0 15 6.729 15 15s-6.729 15-15 15-15-6.729-15-15 6.729-15 15-15z" data-original="#000000" class="active-path" data-old_color="#000000" fill="#4949E7"/><path d="m30 435.999h60v-26.25h-15v11.25h-30v-37.5h30v11.25h15v-26.25h-60z" data-original="#000000" class="active-path" data-old_color="#000000" fill="#4949E7"/><path d="m90 207.25v-26.25h-60v67.5h60v-26.25h-15v11.25h-30v-37.5h30v11.25z" data-original="#000000" class="active-path" data-old_color="#000000" fill="#4949E7"/><path d="m335.923 90.001v-15h-235.596v-45h44.999v-15h-54.802l-55.313 37.5 55.313 37.5zm-250.596-53.354v31.708l-23.385-15.854z" data-original="#000000" class="active-path" data-old_color="#000000" fill="#4949E7"/><path d="m205.327 45h15v15h-15z" data-original="#000000" class="active-path" data-old_color="#000000" fill="#4949E7"/><path d="m145.327 45h45v15h-45z" data-original="#000000" class="active-path" data-old_color="#000000" fill="#4949E7"/><path d="m395.922 75.001h-44.999v15h82.5c20.678 0 37.5-16.822 37.5-37.5s-16.822-37.5-37.5-37.5h-273.097v15h235.596zm60.001-22.5c0 12.407-10.094 22.5-22.5 22.5h-22.501v-45h22.501c12.406 0 22.5 10.093 22.5 22.5z" data-original="#000000" class="active-path" data-old_color="#000000" fill="#4949E7"/><path d="m467 150h15v15h-15z" data-original="#000000" class="active-path" data-old_color="#000000" fill="#4949E7"/><path d="m467 180h15v45h-15z" data-original="#000000" class="active-path" data-old_color="#000000" fill="#4949E7"/><path d="m134.998 452h15v15h-15z" data-original="#000000" class="active-path" data-old_color="#000000" fill="#4949E7"/><path d="m164.998 452h15v15h-15z" data-original="#000000" class="active-path" data-old_color="#000000" fill="#4949E7"/><path d="m378.993 307.86h14.999v14.999h-14.999z" transform="matrix(.707 -.707 .707 .707 -109.793 365.647)" data-original="#000000" class="active-path" data-old_color="#000000" fill="#4949E7"/><path d="m223.005 294.14h15v15h-15z" transform="matrix(.707 -.707 .707 .707 -145.778 251.34)" data-original="#000000" class="active-path" data-old_color="#000000" fill="#4949E7"/><path d="m354.672 272.933c14.621-14.621 14.621-38.411.001-53.033-7.06-7.06-16.477-10.947-26.517-10.947s-19.457 3.888-26.518 10.947l-60.526 60.527 10.607 10.606 60.525-60.527c4.227-4.227 9.878-6.554 15.911-6.554s11.684 2.327 15.909 6.554c8.772 8.773 8.773 23.048.001 31.82l-81.741 81.74c-14.62 14.621-14.62 38.412.001 53.033 7.311 7.311 16.913 10.965 26.516 10.965 9.604 0 19.206-3.655 26.518-10.965l60.526-60.527-10.607-10.606-60.525 60.527c-8.773 8.772-23.047 8.773-31.82 0-8.772-8.773-8.772-23.047-.001-31.82z" data-original="#000000" class="active-path" data-old_color="#000000" fill="#4949E7"/></g></g> </svg>
