<svg width="24" height="14" viewBox="0 0 24 14" fill="none" xmlns="http://www.w3.org/2000/svg">
<path d="M15.6698 0.92608H21.6585V2.27615H15.6698V0.92608ZM9.66904 6.26778C10.9929 5.67922 11.6863 4.78382 11.6863 3.40028C11.6863 0.663877 9.49493 0 6.96435 0H0V13.735H7.15947C9.84315 13.735 12.3617 12.5356 12.3617 9.74616C12.3617 8.02232 11.4852 6.74756 9.66904 6.26778ZM3.24803 2.3431H6.29493C7.46867 2.3431 8.52233 2.64714 8.52233 3.91353C8.52233 5.0795 7.70281 5.54812 6.54109 5.54812H3.24803V2.3431ZM6.7152 11.4031H3.24503V7.62064H6.78424C8.21313 7.62064 9.1167 8.17573 9.1167 9.58159C9.1167 10.9651 8.03902 11.4031 6.7152 11.4031ZM24 8.90656C24 5.96374 22.1478 3.51185 18.7977 3.51185C15.5407 3.51185 13.3253 5.79079 13.3253 8.77824C13.3253 11.8745 15.4236 14 18.7977 14C21.3523 14 23.0064 12.9317 23.8019 10.6527H21.2113C20.9291 11.5035 19.7824 11.9498 18.8908 11.9498C17.1677 11.9498 16.2672 11.0126 16.2672 9.4198H23.979C23.988 9.25523 24 9.08229 24 8.90656ZM16.2672 7.69596C16.3602 6.38773 17.2998 5.57043 18.7047 5.57043C20.1816 5.57043 20.9201 6.37657 21.0492 7.69596H16.2672Z" fill="#FEFEFE"/>
</svg>
