<svg width="32" height="32" viewBox="0 0 32 32" fill="none" xmlns="http://www.w3.org/2000/svg">
<path d="M32 2.84798V29.2159C32 29.9839 31.7227 30.6452 31.168 31.1999C30.6133 31.7546 29.952 32.0319 29.184 32.0319H2.816C2.048 32.0319 1.38667 31.7546 0.832 31.1999C0.277333 30.6452 0 29.9839 0 29.2159V2.84798C0 2.07998 0.277333 1.41865 0.832 0.86398C1.38667 0.309315 2.048 0.0319824 2.816 0.0319824H29.184C29.952 0.0319824 30.6133 0.309315 31.168 0.86398C31.7227 1.41865 32 2.07998 32 2.84798ZM21.376 25.6319H25.504V17.7279C25.504 15.8293 25.0667 14.3893 24.192 13.4079C23.3173 12.4266 22.176 11.936 20.768 11.936C19.7653 11.936 18.9173 12.16 18.224 12.608C17.5307 13.0559 17.0133 13.5573 16.672 14.1119H16.608L16.416 12.224H12.864C12.928 14.6559 12.96 16.0853 12.96 16.5119V25.6319H17.056V17.9199C17.056 17.4719 17.0987 17.1199 17.184 16.8639C17.6107 15.8186 18.3147 15.2959 19.296 15.2959C20.6827 15.2959 21.376 16.2666 21.376 18.2079V25.6319ZM10.032 7.02396C9.63733 6.6293 9.12 6.43197 8.48 6.43197C7.84 6.43197 7.31733 6.6293 6.912 7.02396C6.50667 7.41863 6.304 7.91463 6.304 8.51196C6.304 9.10929 6.50133 9.60529 6.896 9.99996C7.29067 10.3946 7.79733 10.592 8.416 10.592C9.09867 10.592 9.64267 10.4 10.048 10.016C10.432 9.63196 10.624 9.16263 10.624 8.60796C10.624 7.94663 10.4267 7.41863 10.032 7.02396ZM6.4 25.6319H10.496V12.224H6.4V25.6319Z" fill="black"/>
</svg>
