<svg width="18" height="18" viewBox="0 0 18 18" fill="none" xmlns="http://www.w3.org/2000/svg">
<path d="M15.2035 3.17395C14.4113 2.32127 13.4512 1.64188 12.3835 1.17858C11.3159 0.715271 10.1638 0.478092 8.99997 0.481981C7.88671 0.481981 6.79996 0.69615 5.7694 1.12025C4.20389 1.75826 2.86441 2.84897 1.92245 4.25275C0.980493 5.65652 0.47892 7.30948 0.481947 9.00001C0.481947 11.5743 1.62913 13.9832 3.63194 15.6106C5.15016 16.8422 7.04503 17.5155 8.99997 17.518C10.2274 17.5184 11.4402 17.2514 12.5539 16.7356C13.6903 16.2146 14.6976 15.4494 15.5042 14.4944C16.3108 13.5393 16.8967 12.4181 17.2201 11.2106V11.2096C17.4173 10.4674 17.518 9.72415 17.518 9.00001C17.5191 6.83361 16.691 4.74896 15.2035 3.17395ZM16.2478 10.3836C16.0602 10.3433 15.8778 10.3253 15.6912 10.2924C15.4442 10.249 15.1971 10.2034 14.9533 10.1716C14.6638 10.1345 14.3807 10.1154 14.0966 10.0963C13.8676 10.0815 13.6386 10.0613 13.4138 10.0581C13.3438 10.0571 13.2696 10.0465 13.1996 10.0465C12.8264 10.0465 12.4564 10.0645 12.0885 10.0963C12.0408 10.1005 11.9941 10.1101 11.9464 10.1143C11.6495 10.144 11.3537 10.1779 11.0632 10.2288C11.0155 10.1048 10.9614 9.98816 10.9127 9.86517C10.7172 9.36991 10.5136 8.87789 10.302 8.3893C10.25 8.27056 10.2044 8.14545 10.1525 8.02776C10.2638 7.98323 10.3635 7.9334 10.4716 7.88675C10.5819 7.83903 10.6921 7.79238 10.7982 7.74255C11.0335 7.63229 11.2572 7.51778 11.4735 7.39903C11.5424 7.36086 11.6156 7.32588 11.6824 7.28771C11.9581 7.12867 12.2178 6.96221 12.4627 6.79151C12.5211 6.75016 12.5741 6.70775 12.6303 6.6664C12.8147 6.53175 12.9918 6.39604 13.1583 6.25821C13.4348 6.02522 13.7008 5.78006 13.9556 5.52346C14.0991 5.37648 14.238 5.22514 14.3722 5.06967C14.3977 5.03998 14.4274 5.0103 14.4518 4.98061C14.586 4.8216 14.7154 4.6586 14.8398 4.49184C15.8425 5.78059 16.3866 7.3671 16.3857 9.00001C16.3857 9.45273 16.339 9.91606 16.2478 10.3836ZM8.99997 1.61432C10.9042 1.61432 12.6833 2.32681 14.0595 3.63091C14.0446 3.65318 14.0319 3.67332 14.016 3.69453C13.9757 3.75072 13.9312 3.80798 13.8888 3.86417C13.7588 4.03588 13.623 4.20315 13.4816 4.36567C13.2203 4.66181 12.9409 4.94154 12.6451 5.20326C12.5825 5.25839 12.5242 5.31353 12.4585 5.36866C12.2577 5.53768 12.0497 5.69792 11.8351 5.84895L11.7895 5.87864C11.5806 6.02389 11.358 6.16491 11.1236 6.30062C11.0378 6.35045 10.9434 6.3971 10.8533 6.44587C10.6787 6.54149 10.5012 6.63165 10.321 6.71623C10.2047 6.76978 10.0874 6.82104 9.96904 6.86997C9.87362 6.91026 9.77077 6.94737 9.67217 6.9866C9.64566 6.9304 9.6181 6.88163 9.59159 6.82544C9.37813 6.37894 9.15722 5.93605 8.92894 5.49695L8.87804 5.40153C8.67744 5.01884 8.47102 4.63923 8.25886 4.26282L8.11997 4.01684C7.91534 3.65848 7.71707 3.32026 7.52623 3.00431L7.40006 2.79862C7.23863 2.53528 7.07428 2.27374 6.90704 2.01404L6.85615 1.93346C7.55109 1.72184 8.27353 1.61429 8.99997 1.61432ZM5.77788 2.3565L5.79697 2.38512C6.24054 3.06405 6.66446 3.75562 7.0682 4.45897L7.13818 4.58302C7.33644 4.93078 7.54001 5.30292 7.74676 5.69097L7.86551 5.91363C8.08498 6.33136 8.30657 6.77349 8.52922 7.23469L8.57693 7.33436C8.22493 7.43296 7.87929 7.54004 7.50396 7.61108C7.44671 7.62168 7.38734 7.62911 7.33008 7.63971C6.19138 7.84116 4.94877 7.91325 3.61922 7.86236C3.51637 7.85812 3.41671 7.85812 3.31175 7.85282C2.78294 7.81947 2.25537 7.76891 1.72986 7.7012C1.9335 6.55355 2.40664 5.47063 3.11037 4.54147C3.8141 3.61232 4.72833 2.86347 5.77788 2.3565ZM1.61429 9.00001L1.61641 8.84627C1.76697 8.86429 1.90692 8.86535 2.05641 8.8802C2.69922 8.94605 3.34433 8.98708 3.9903 9.00319C4.13344 9.00637 4.28611 9.02015 4.42713 9.02015H4.42819C4.73248 9.02015 5.02511 9.00213 5.31985 8.98834C5.4439 8.98304 5.57113 8.98304 5.69306 8.97562C6.22745 8.94079 6.75992 8.88099 7.28873 8.79644C7.42232 8.77523 7.54849 8.74555 7.6789 8.72116C8.07438 8.64694 8.45819 8.55894 8.83033 8.4561C8.90773 8.43489 8.99255 8.42429 9.06783 8.40097C9.1219 8.52077 9.17385 8.6427 9.22687 8.76463C9.47581 9.33349 9.71265 9.90756 9.93723 10.4865C9.82272 10.5193 9.7167 10.5607 9.60431 10.5967C9.22745 10.7126 8.85752 10.85 8.49635 11.0081C8.37655 11.0601 8.25356 11.1078 8.13693 11.1629C7.87293 11.287 7.61953 11.4205 7.37355 11.5594C7.31418 11.5923 7.25056 11.6231 7.19225 11.657C6.89008 11.833 6.60381 12.0196 6.33027 12.2115C6.25393 12.2645 6.18502 12.3207 6.1108 12.3748C5.91783 12.5168 5.72805 12.6589 5.54993 12.8052C5.45981 12.8794 5.37605 12.9537 5.28911 13.0279C5.14019 13.1557 4.99385 13.2865 4.85017 13.4202C4.76535 13.5008 4.68265 13.5792 4.60207 13.6598C4.47378 13.787 4.35079 13.9121 4.2331 14.0383C4.15782 14.1189 4.08149 14.1984 4.01045 14.2779L3.92669 14.367C3.19533 13.6776 2.61287 12.8458 2.21518 11.9228C1.81749 10.9997 1.61299 10.0051 1.61429 9.00001ZM4.81412 15.0826L4.86713 15.0211C4.93074 14.9501 5.00072 14.8791 5.06752 14.807C5.25126 14.6105 5.44187 14.4206 5.63899 14.2376C5.98761 13.9114 6.35471 13.6056 6.73846 13.3216C6.82434 13.258 6.90704 13.1933 6.99505 13.1318C7.20709 12.9834 7.42975 12.8413 7.65876 12.7034C7.70117 12.678 7.73934 12.6504 7.78281 12.625C8.05635 12.466 8.34368 12.3165 8.64267 12.1765C8.73385 12.1341 8.83139 12.098 8.92469 12.0578C9.13993 11.9645 9.35834 11.8743 9.58629 11.7938C9.70716 11.7513 9.83227 11.7142 9.95737 11.675C10.0804 11.6368 10.2097 11.604 10.3369 11.569C10.5755 12.2338 10.8088 12.9028 11.0176 13.5877L11.0473 13.6778C11.2668 14.4051 11.4576 15.1463 11.641 15.8906C10.5227 16.3187 9.31717 16.4688 8.128 16.3281C6.93883 16.1874 5.80162 15.76 4.81412 15.0826ZM12.696 15.3859C12.5282 14.722 12.3455 14.062 12.1478 13.4064L12.1266 13.329C11.9237 12.6585 11.7052 11.9929 11.4714 11.3326C11.6251 11.3082 11.7778 11.2795 11.9337 11.2615C12.063 11.2467 12.1924 11.2297 12.3228 11.2202C12.7013 11.1915 13.084 11.1799 13.4742 11.1884C13.5177 11.1894 13.5601 11.1852 13.6036 11.1873C14.0414 11.2021 14.4857 11.2445 14.9363 11.306C15.0582 11.323 15.1823 11.3485 15.3053 11.3686C15.5152 11.4036 15.7283 11.4502 15.9403 11.4948C15.3552 13.1359 14.2052 14.5152 12.696 15.3859Z" fill="#FEFEFE"/>
</svg>
