<svg width="32" height="32" viewBox="0 0 32 32" fill="none" xmlns="http://www.w3.org/2000/svg">
<path d="M32 2.84822V29.2162C32 29.9842 31.7227 30.6455 31.168 31.2001C30.6133 31.7548 29.952 32.0321 29.184 32.0321H2.816C2.048 32.0321 1.38667 31.7548 0.832 31.2001C0.277333 30.6455 0 29.9842 0 29.2162V2.84822C0 2.08022 0.277333 1.41889 0.832 0.864224C1.38667 0.309559 2.048 0.0322266 2.816 0.0322266H29.184C29.952 0.0322266 30.6133 0.309559 31.168 0.864224C31.7227 1.41889 32 2.08022 32 2.84822ZM21.376 25.6322H25.504V17.7282C25.504 15.8295 25.0667 14.3895 24.192 13.4082C23.3173 12.4269 22.176 11.9362 20.768 11.9362C19.7653 11.9362 18.9173 12.1602 18.224 12.6082C17.5307 13.0562 17.0133 13.5575 16.672 14.1122H16.608L16.416 12.2242H12.864C12.928 14.6562 12.96 16.0855 12.96 16.5122V25.6322H17.056V17.9202C17.056 17.4722 17.0987 17.1202 17.184 16.8642C17.6107 15.8189 18.3147 15.2962 19.296 15.2962C20.6827 15.2962 21.376 16.2669 21.376 18.2082V25.6322ZM10.032 7.02421C9.63733 6.62954 9.12 6.43221 8.48 6.43221C7.84 6.43221 7.31733 6.62954 6.912 7.02421C6.50667 7.41887 6.304 7.91487 6.304 8.51221C6.304 9.10954 6.50133 9.60554 6.896 10.0002C7.29067 10.3949 7.79733 10.5922 8.416 10.5922C9.09867 10.5922 9.64267 10.4002 10.048 10.0162C10.432 9.6322 10.624 9.16287 10.624 8.6082C10.624 7.94687 10.4267 7.41887 10.032 7.02421ZM6.4 25.6322H10.496V12.2242H6.4V25.6322Z" fill="white"/>
</svg>
