<?xml version="1.0"?>
<svg xmlns="http://www.w3.org/2000/svg" id="Capa_1" enable-background="new 0 0 512 512" height="512px" viewBox="0 0 512 512" width="512px" class=""><g><g><path d="m15 1c-8.284 0-15 6.716-15 15v345h196c16.87 0 32.457 5.599 45 15.036v-305.036c0-38.66-31.34-70-70-70zm166 315h-121c-8.284 0-15-6.716-15-15s6.716-15 15-15h121c8.284 0 15 6.716 15 15s-6.716 15-15 15zm0-60h-121c-8.284 0-15-6.716-15-15s6.716-15 15-15h121c8.284 0 15 6.716 15 15s-6.716 15-15 15zm0-60h-121c-8.284 0-15-6.716-15-15s6.716-15 15-15h121c8.284 0 15 6.716 15 15s-6.716 15-15 15zm0-60h-121c-8.284 0-15-6.716-15-15s6.716-15 15-15h121c8.284 0 15 6.716 15 15s-6.716 15-15 15zm0-60h-121c-8.284 0-15-6.716-15-15s6.716-15 15-15h121c8.284 0 15 6.716 15 15s-6.716 15-15 15z" data-original="#000000" class="active-path" data-old_color="#000000" fill="#4949E7"/><path d="m196 391h-196v45c0 8.284 6.716 15 15 15h226v-15c0-24.813-20.187-45-45-45z" data-original="#000000" class="active-path" data-old_color="#000000" fill="#4949E7"/><g><path d="m271 334.694v41.342c9.472-7.126 20.682-12.06 32.867-14.051-12.463-7.169-23.575-16.429-32.867-27.291z" data-original="#000000" class="active-path" data-old_color="#000000" fill="#4949E7"/><path d="m366 348.534c-52.383 0-95-42.617-95-95.001 0-52.383 42.617-94.999 95-94.999s95 42.617 95 95-42.617 95-95 95z" data-original="#000000" class="active-path" data-old_color="#000000" fill="#4949E7"/><g><path d="m316 391c-24.813 0-45 20.187-45 45v15h103.015l-21.838-60z" data-original="#000000" class="active-path" data-old_color="#000000" fill="#4949E7"/><path d="m512 436v-45h-32.123l21.592 59.323c6.102-1.903 10.531-7.595 10.531-14.323z" data-original="#000000" class="active-path" data-old_color="#000000" fill="#4949E7"/><g><path d="m497 1h-156c-38.66 0-70 31.34-70 70v101.405c23.689-27.693 59.243-44.95 98.711-43.801 66.402 1.934 120.077 56.245 121.269 122.664.582 32.456-11.283 62.181-31.121 84.732l9.099 25h43.042v-345c0-8.284-6.716-15-15-15zm-45 75h-121c-8.284 0-15-6.716-15-15s6.716-15 15-15h121c8.284 0 15 6.716 15 15s-6.716 15-15 15z" data-original="#000000" class="active-path" data-old_color="#000000" fill="#4949E7"/></g></g><g><path d="m379.312 377.825 41.284 113.428c5.667 15.569 22.882 23.597 38.451 17.93 15.569-5.667 23.597-22.882 17.93-38.451l-41.299-113.468c-16.446 11.083-35.659 18.358-56.366 20.561z" data-original="#000000" class="active-path" data-old_color="#000000" fill="#4949E7"/></g></g></g></g> </svg>
