<?xml version="1.0"?>
<svg xmlns="http://www.w3.org/2000/svg" xmlns:xlink="http://www.w3.org/1999/xlink" version="1.1" id="Capa_1" x="0px" y="0px" viewBox="0 0 512 512" style="enable-background:new 0 0 512 512;" xml:space="preserve" width="512px" height="512px"><g><g>
	<g>
		<path d="M358.018,153.14v-51.121C358.018,45.765,312.253,0,256,0c-56.253,0-102.018,45.765-102.018,102.018v51.121H43.379V512    h425.242V153.14H358.018z M218.983,102.018c0-20.411,16.605-37.017,37.017-37.017c20.411,0,37.017,16.605,37.017,37.017v51.121    h-74.034V102.018z M265.884,264.32v15c0,25.553-17.281,47.13-40.765,53.699v111.065h-30.001V333.02    c-23.485-6.569-40.765-28.148-40.765-53.699v-15v-43.265h30.001v43.265h10.764v-43.265h30.001v43.265h10.764v-43.265h30.001    V264.32z M357.646,322.006c0,25.175-16.981,46.444-40.087,52.994v69.085h-30.001v0v-66.992v-27.011V221.067h15    c30.376,0,55.087,24.712,55.087,55.087V322.006z" data-original="#000000" class="active-path" data-old_color="#000000" fill="#4949E7"/>
	</g>
</g></g> </svg>
